<?xml version="1.0" encoding="UTF-8" standalone="no"?>
<!-- Created with Inkscape (http://www.inkscape.org/) -->

<svg
   width="22.023359mm"
   height="20.445753mm"
   viewBox="0 0 22.023359 20.445754"
   version="1.1"
   id="svg6089"
   inkscape:version="1.1.1 (3bf5ae0d25, 2021-09-20)"
   sodipodi:docname="ghirigoro.svg"
   xmlns:inkscape="http://www.inkscape.org/namespaces/inkscape"
   xmlns:sodipodi="http://sodipodi.sourceforge.net/DTD/sodipodi-0.dtd"
   xmlns="http://www.w3.org/2000/svg"
   xmlns:svg="http://www.w3.org/2000/svg">
  <sodipodi:namedview
     id="namedview6091"
     pagecolor="#ffffff"
     bordercolor="#666666"
     borderopacity="1.0"
     inkscape:pageshadow="2"
     inkscape:pageopacity="0.0"
     inkscape:pagecheckerboard="0"
     inkscape:document-units="mm"
     showgrid="false"
     units="mm"
     fit-margin-top="0"
     fit-margin-left="0"
     fit-margin-right="0"
     fit-margin-bottom="0"
     inkscape:zoom="4.192802"
     inkscape:cx="64.753834"
     inkscape:cy="84.549665"
     inkscape:window-width="1680"
     inkscape:window-height="987"
     inkscape:window-x="1912"
     inkscape:window-y="-8"
     inkscape:window-maximized="1"
     inkscape:current-layer="layer1" />
  <defs
     id="defs6086">
    <clipPath
       clipPathUnits="userSpaceOnUse"
       id="clipPath833">
      <rect
         style="fill:#1a1a1a;stroke-width:0.264583"
         id="rect835"
         width="33.019833"
         height="21.596754"
         x="-1.0709134"
         y="-0.35697117" />
    </clipPath>
  </defs>
  <g
     inkscape:label="Layer 1"
     inkscape:groupmode="layer"
     id="layer1"
     transform="translate(0.13113469,-0.21609989)">
    <path
       class="st0"
       d="m 20.352711,9.0369642 c 0.39687,-1.79917 2.03729,-5.18584 4.78896,-4.94771 1.19062,0.0794 3.14854,2.19604 1.64041,6.9056208 -1.32291,3.99521 -5.02708,5.26521 -5.02708,5.26521 0,0 -2.43417,-2.83104 -1.40229,-7.2231208 m -4.947709,7.5935408 c -1.95792,-0.55563 -4.78896,-2.19604 -4.47146,-4.31271 0.0794,-0.71438 0.79375,-2.27542 4.70958,-2.4341703 1.11125,0 2.513549,0.4762503 2.513549,0.4762503 0,0.9525 0.0794,1.95792 0.47625,3.06917 0.47625,1.87854 1.48166,3.36021 1.48166,3.36021 0,0 -1.95791,0.55562 -4.709579,-0.15875 m 11.271249,-1.08479 c -0.3175,0.0794 1.71979,3.06916 -1.32292,2.91041 -1.08479,-0.0794 -2.51354,-1.16416 -2.51354,-1.16416 0,0 2.03729,-0.9525 3.06917,-1.95792 0.71437,-0.79375 3.91583,-4.07458 3.43958,-9.3397908 -0.47625,-5.87376099 -4.47146,-5.34460101 -5.10646,-5.10646101 -5.42396,1.64042101 -6.11187,7.83167101 -6.11187,7.83167101 v 0.7143705 l -0.0794,-0.0794 c 0,0 -10.1864586,-3.2279205 -10.3452086,2.8310403 -0.0794,2.67229 3.6777096,5.63563 7.9110496,6.19125 2.751659,0.3175 5.503329,-0.47625 5.503329,-0.47625 0.0794,0.15875 2.83104,2.67229 4.86833,2.43417 3.75709,-0.47625 0.92604,-4.94771 0.68792,-4.78896 M 0.00622637,39.649225 c 0.978956,2.64584 4.04812603,4.33917 8.30792603,4.33917 5.3974996,0 8.5989496,-2.64583 8.5989496,-6.53521 0,-3.20146 -1.98437,-4.89479 -6.11187,-6.24417 -2.9633296,-0.97895 -4.7360396,-1.37583 -4.7360396,-3.0427 0,-1.13771 1.13771,-1.93146 2.91041,-1.93146 1.7197996,0 2.9104196,0.79375 3.3602096,2.32833 l 4.31271,-2.14312 c -1.19062,-2.61938 -3.91583,-4.18042 -7.5935396,-4.18042 -5.26522,0 -8.46668003,2.83104 -8.46668003,6.61458 0,3.04271 2.19604003,4.49792 6.32355003,6.05896 2.69875,1.00542 4.3391696,1.13771 4.3391696,2.96333 0,1.21709 -1.13771,1.98438 -3.0691696,1.98438 -1.98437,0 -3.38666,-1.00542 -3.6777,-2.54 z m 20.98146463,3.51896 h 5.84729 v -20.18771 h -5.84729 z"
       id="path13"
       style="fill:#ffd200;stroke-width:0.264583"
       clip-path="url(#clipPath833)"
       transform="translate(-7.7098627,-0.10071768)" />
  </g>
</svg>
