<?xml version="1.0" encoding="utf-8"?>
<!-- Generator: Adobe Illustrator 19.0.0, SVG Export Plug-In . SVG Version: 6.00 Build 0)  -->
<svg version="1.1" id="layer" xmlns="http://www.w3.org/2000/svg" xmlns:xlink="http://www.w3.org/1999/xlink" x="0px" y="0px"
	 viewBox="-153 -46 652 652" style="enable-background:new -153 -46 652 652;" xml:space="preserve">
<style type="text/css">
	.st0{fill:#C99D69;}
</style>
<path d="M-127.2,284.2l21.7,0l0,12c8-9.9,16.9-14.5,28.2-14.5c11.8,0,19.8,4,24.4,12.1c3,5.6,3.2,11.8,3.2,19.8v2.4l0,44.6l-22.1,0
	l0-37.7c0-14.5-1.3-23.1-14.5-23.1c-6.2,0-11.5,2.7-14.8,7.3c-3.7,4.9-3.8,10.4-3.8,16.9v3l0,33.6l-22.1,0L-127.2,284.2z M6.8,299.9
	c11.3,0,19.1,8.1,19.1,22.3c0,13.9-7.2,21.8-19.3,21.8c-12.1,0-19.3-8.1-19.3-21.8C-12.6,308.4-5.3,299.9,6.8,299.9 M46.2,360.5
	l0-76.3l-21,0l0,12.6c-5.9-10.2-14.5-15.1-25.7-15.1c-21.7,0-34.6,15.1-34.5,40.8c0,25.3,14,41.1,33.8,41.1c12.1,0,20.2-4.3,26.3-14
	l-0.3,11L46.2,360.5z M68.2,360.5l22.1,0l0-58.9l10.7,0v-17.4l-10.7,0l0-25.3l-22.1,0l0,25.3l-10.7,0l0,17.4l10.7,0L68.2,360.5z
	 M134.7,284.1l-22,0l0,40.2c0,26.3,11.5,39.2,39.1,39.2c26.8,0,38.5-12.7,38.5-39.2l0-40.2l-22.1,0l0,40.2
	c0,12.4-4.1,18.8-16.7,18.8c-12.6,0-16.7-6.2-16.7-18.8L134.7,284.1z M256.6,281.5c-12.4,0-20.7,7.3-25.2,22.2l0.5-19.6l-21.8,0
	l0,76.3l22.1,0l0-33.6c0-15.3,4.8-22.5,18.9-22.5c3.7,0,7,0.6,10.4,2.1l3.3-23.9C261.7,282,259,281.5,256.6,281.5 M310.5,299.8
	c11.3,0,19.1,8.1,19.1,22.3c0,13.9-7.2,21.8-19.3,21.8c-12.1,0-19.3-8.1-19.3-21.8C291.1,308.3,298.4,299.8,310.5,299.8
	 M349.9,360.4l0-76.3l-21,0l0,12.6c-5.9-10.2-14.5-15.1-25.7-15.1c-21.7,0-34.6,15.1-34.6,40.8c0,25.3,14,41.1,33.8,41.1
	c12.1,0,20.2-4.3,26.3-14l-0.3,11L349.9,360.4z"/>
<path class="st0" d="M438.6,231.3c1.5-6.8,7.7-19.6,18.1-18.7c4.5,0.3,11.9,8.3,6.2,26.1c-5,15.1-19,19.9-19,19.9
	S434.7,247.9,438.6,231.3 M419.9,260c-7.4-2.1-18.1-8.3-16.9-16.3c0.3-2.7,3-8.6,17.8-9.2c4.2,0,9.5,1.8,9.5,1.8
	c0,3.6,0.3,7.4,1.8,11.6c1.8,7.1,5.6,12.7,5.6,12.7S430.3,262.7,419.9,260 M462.5,255.9c-1.2,0.3,6.5,11.6-5,11
	c-4.1-0.3-9.5-4.4-9.5-4.4s7.7-3.6,11.6-7.4c2.7-3,14.8-15.4,13-35.3c-1.8-22.2-16.9-20.2-19.3-19.3c-20.5,6.2-23.1,29.6-23.1,29.6
	v2.7l-0.3-0.3c0,0-38.5-12.2-39.1,10.7c-0.3,10.1,13.9,21.3,29.9,23.4c10.4,1.2,20.8-1.8,20.8-1.8c0.3,0.6,10.7,10.1,18.4,9.2
	C474.1,272.2,463.4,255.3,462.5,255.9 M361.7,347c3.7,10,15.3,16.4,31.4,16.4c20.4,0,32.5-10,32.5-24.7c0-12.1-7.5-18.5-23.1-23.6
	c-11.2-3.7-17.9-5.2-17.9-11.5c0-4.3,4.3-7.3,11-7.3c6.5,0,11,3,12.7,8.8l16.3-8.1c-4.5-9.9-14.8-15.8-28.7-15.8
	c-19.9,0-32,10.7-32,25c0,11.5,8.3,17,23.9,22.9c10.2,3.8,16.4,4.3,16.4,11.2c0,4.6-4.3,7.5-11.6,7.5c-7.5,0-12.8-3.8-13.9-9.6
	L361.7,347z M441,360.3l22.1,0l0-76.3l-22.1,0L441,360.3z"/>
</svg>
