<?xml version="1.0" encoding="UTF-8" standalone="no"?>
<!-- Created with Inkscape (http://www.inkscape.org/) -->

<svg
   width="158.74516mm"
   height="43.28278mm"
   viewBox="0 0 158.74516 43.28278"
   version="1.1"
   id="svg5"
   inkscape:version="1.1.1 (3bf5ae0d25, 2021-09-20)"
   sodipodi:docname="naturasi-logo-vector-alt.svg"
   xmlns:inkscape="http://www.inkscape.org/namespaces/inkscape"
   xmlns:sodipodi="http://sodipodi.sourceforge.net/DTD/sodipodi-0.dtd"
   xmlns="http://www.w3.org/2000/svg"
   xmlns:svg="http://www.w3.org/2000/svg">
  <sodipodi:namedview
     id="namedview7"
     pagecolor="#ffffff"
     bordercolor="#666666"
     borderopacity="1.0"
     inkscape:pageshadow="2"
     inkscape:pageopacity="0.0"
     inkscape:pagecheckerboard="0"
     inkscape:document-units="mm"
     showgrid="false"
     inkscape:zoom="0.70710678"
     inkscape:cx="68.589357"
     inkscape:cy="221.32442"
     inkscape:window-width="1920"
     inkscape:window-height="1017"
     inkscape:window-x="-8"
     inkscape:window-y="-8"
     inkscape:window-maximized="1"
     inkscape:current-layer="g23"
     fit-margin-top="0"
     fit-margin-left="0"
     fit-margin-right="0"
     fit-margin-bottom="0" />
  <defs
     id="defs2" />
  <g
     inkscape:label="Layer 1"
     inkscape:groupmode="layer"
     id="layer1"
     transform="translate(-12.042316,-12.498679)">
    <g
       id="g23"
       transform="matrix(0.26458333,0,0,0.26458333,42.32972,-44.911167)">
      <path
         d="m -114.47208,301.17056 h 21.700004 v 12 c 8,-9.9 16.9,-14.5 28.2,-14.5 11.799998,0 19.799998,4 24.399998,12.1 3,5.6 3.2,11.8 3.2,19.8 v 2.4 44.6 h -22.099998 v -37.7 c 0,-14.5 -1.3,-23.1 -14.5,-23.1 -6.2,0 -11.5,2.7 -14.8,7.3 -3.7,4.9 -3.8,10.4 -3.8,16.9 v 3 33.6 h -22.100004 z m 134.000002,15.7 c 11.3,0 19.1,8.1 19.1,22.3 0,13.9 -7.2,21.8 -19.3,21.8 -12.0999996,0 -19.29999964,-8.1 -19.29999964,-21.8 0.1,-13.8 7.40000004,-22.3 19.49999964,-22.3 m 39.4,60.6 v -76.3 h -21 v 12.6 c -5.9,-10.2 -14.5,-15.1 -25.7,-15.1 -21.6999996,0 -34.6,15.1 -34.5,40.8 0,25.3 14.0000004,41.1 33.8,41.1 12.1,0 20.2,-4.3 26.3,-14 l -0.3,11 z m 22,0 h 22.099998 v -58.9 h 10.7 v -17.4 h -10.7 v -25.3 H 80.927922 v 25.3 h -10.7 v 17.4 h 10.7 z m 66.499998,-76.4 h -22 v 40.2 c 0,26.3 11.5,39.2 39.1,39.2 26.8,0 38.5,-12.7 38.5,-39.2 v -40.2 h -22.1 v 40.2 c 0,12.4 -4.1,18.8 -16.7,18.8 -12.6,0 -16.7,-6.2 -16.7,-18.8 z m 121.9,-2.6 c -12.4,0 -20.7,7.3 -25.2,22.2 l 0.5,-19.6 h -21.8 v 76.3 h 22.1 v -33.6 c 0,-15.3 4.8,-22.5 18.9,-22.5 3.7,0 7,0.6 10.4,2.1 l 3.3,-23.9 c -3.1,-0.5 -5.8,-1 -8.2,-1 m 53.9,18.3 c 11.3,0 19.1,8.1 19.1,22.3 0,13.9 -7.2,21.8 -19.3,21.8 -12.1,0 -19.3,-8.1 -19.3,-21.8 0.1,-13.8 7.4,-22.3 19.5,-22.3 m 39.4,60.6 v -76.3 h -21 v 12.6 c -5.9,-10.2 -14.5,-15.1 -25.7,-15.1 -21.7,0 -34.6,15.1 -34.6,40.8 0,25.3 14,41.1 33.8,41.1 12.1,0 20.2,-4.3 26.3,-14 l -0.3,11 z"
         id="path11"
         class="st30" />
      <path
         class="st0"
         d="m 451.32792,248.27056 c 1.5,-6.8 7.7,-19.6 18.1,-18.7 4.5,0.3 11.9,8.3 6.2,26.1 -5,15.1 -19,19.9 -19,19.9 0,0 -9.2,-10.7 -5.3,-27.3 m -18.7,28.7 c -7.4,-2.1 -18.1,-8.3 -16.9,-16.3 0.3,-2.7 3,-8.6 17.8,-9.2 4.2,0 9.5,1.8 9.5,1.8 0,3.6 0.3,7.4 1.8,11.6 1.8,7.1 5.6,12.7 5.6,12.7 0,0 -7.4,2.1 -17.8,-0.6 m 42.6,-4.1 c -1.2,0.3 6.5,11.6 -5,11 -4.1,-0.3 -9.5,-4.4 -9.5,-4.4 0,0 7.7,-3.6 11.6,-7.4 2.7,-3 14.8,-15.4 13,-35.3 -1.8,-22.2 -16.9,-20.2 -19.3,-19.3 -20.5,6.2 -23.1,29.6 -23.1,29.6 v 2.7 l -0.3,-0.3 c 0,0 -38.5,-12.2 -39.1,10.7 -0.3,10.1 13.9,21.3 29.9,23.4 10.4,1.2 20.8,-1.8 20.8,-1.8 0.3,0.6 10.7,10.1 18.4,9.2 14.2,-1.8 3.5,-18.7 2.6,-18.1 m -100.8,91.1 c 3.7,10 15.3,16.4 31.4,16.4 20.4,0 32.5,-10 32.5,-24.7 0,-12.1 -7.5,-18.5 -23.1,-23.6 -11.2,-3.7 -17.9,-5.2 -17.9,-11.5 0,-4.3 4.3,-7.3 11,-7.3 6.5,0 11,3 12.7,8.8 l 16.3,-8.1 c -4.5,-9.9 -14.8,-15.8 -28.7,-15.8 -19.9,0 -32,10.7 -32,25 0,11.5 8.3,17 23.9,22.9 10.2,3.8 16.4,4.3 16.4,11.2 0,4.6 -4.3,7.5 -11.6,7.5 -7.5,0 -12.8,-3.8 -13.9,-9.6 z m 79.3,13.3 h 22.1 v -76.3 h -22.1 z"
         id="path13" />
    </g>
  </g>
  <style
     type="text/css"
     id="style9">
	.st0{fill:#ffd200;}

	.st30{fill:#ffffff;}
</style>
</svg>
